<svg width="152" height="47" viewBox="0 0 152 47" fill="none" xmlns="http://www.w3.org/2000/svg">
<rect x="0.959961" width="150.08" height="46.3" fill="white"/>
<path fill-rule="evenodd" clip-rule="evenodd" d="M0.959961 23.1481V46.2963H24.429H47.898V23.1481V0H24.429H0.959961V23.1481ZM45.4276 21.9136C45.4276 32.963 45.3658 41.9753 45.2423 41.9753C45.1805 41.9753 36.1017 32.963 25.0466 21.9136L4.9744 1.85185H25.2319H45.4276V21.9136ZM10.1623 10.3086L15.7825 16.2963V30V43.7654L9.85348 43.9506C6.58017 44.0741 3.80095 44.0123 3.67743 43.8889C3.12158 43.3333 3.43038 4.32099 3.98623 4.32099C4.29503 4.32099 7.07426 7.03704 10.1623 10.3086ZM31.3462 31.2963C38.0781 38.0247 43.5748 43.642 43.5748 43.8272C43.5748 44.0123 37.9545 44.0741 31.0991 44.0123L18.5617 43.8889L18.3764 31.4815C18.3147 24.6914 18.4382 19.1358 18.6852 19.1358C18.9323 19.1358 24.676 24.6296 31.3462 31.2963Z" fill="black"/>
<path fill-rule="evenodd" clip-rule="evenodd" d="M87.61 0.432112C99.4681 0.555568 118.614 0.555568 130.225 0.432112C141.836 0.370383 132.201 0.308655 108.732 0.308655C85.3249 0.308655 75.8138 0.370383 87.61 0.432112Z" fill="black"/>
<path fill-rule="evenodd" clip-rule="evenodd" d="M114.599 9.32098C114.599 9.69135 115.155 10.1234 115.835 10.3086C116.884 10.5555 117.07 11.1728 117.07 13.642C117.07 16.4815 116.39 17.4691 115.526 16.0494C114.723 14.7531 110.955 15.3704 108.917 17.2222C107.003 18.8889 106.879 19.321 106.879 23.0247C106.879 26.4197 107.126 27.2839 108.362 28.642C110.153 30.4938 113.549 30.8025 115.711 29.2593C116.946 28.3951 117.132 28.3951 117.44 29.2593C117.687 29.8765 118.552 30.2469 119.602 30.2469C121.517 30.2469 122.011 29.1975 120.467 28.642C119.725 28.3333 119.54 26.6049 119.54 18.4568V8.64197H117.07C115.711 8.64197 114.599 8.95061 114.599 9.32098ZM115.896 17.9012C116.884 18.4568 117.07 19.2593 117.07 22.3457C117.07 26.8518 116.02 28.3951 112.994 28.3951C111.573 28.3951 110.647 27.963 110.029 27.037C108.3 24.6296 108.979 19.1975 111.141 17.7778C112.129 17.0988 114.476 17.1605 115.896 17.9012Z" fill="black"/>
<path fill-rule="evenodd" clip-rule="evenodd" d="M66.4261 9.8148C66.4261 10.1234 66.982 10.7407 67.6614 11.1111C68.773 11.7284 68.8966 12.4074 68.8966 20.0617C68.8966 27.7778 68.8348 28.3333 67.6614 28.7037C66.982 28.8889 66.4261 29.3827 66.4261 29.7531C66.4261 30.1234 68.8348 30.3086 73.158 30.1234C79.3341 29.9383 80.0752 29.8148 81.4957 28.4568C83.8426 26.2346 83.7191 22.716 81.2487 20.9259L79.4576 19.5679L80.9399 18.1481C83.0397 16.1728 83.0397 13.0864 80.8781 11.0494C79.5194 9.75307 78.6547 9.56789 72.8492 9.3827C68.526 9.19752 66.4261 9.32097 66.4261 9.8148ZM77.8518 11.9753C79.5811 12.716 80.0135 13.2099 80.0135 14.6296C80.0135 17.6543 77.9754 19.1358 73.8992 19.1358H71.367V15.1234V11.1111H73.5286C74.7638 11.1111 76.6784 11.5432 77.8518 11.9753ZM78.4695 21.2346C80.384 22.037 80.6311 22.4691 80.6311 24.321C80.6311 27.2222 78.9018 28.395 74.6403 28.395H71.367V24.8148C71.367 22.8395 71.5523 20.9876 71.7993 20.8025C72.4787 20.0617 76.2461 20.3086 78.4695 21.2346Z" fill="black"/>
<path fill-rule="evenodd" clip-rule="evenodd" d="M100.024 10.1852C99.5298 11.358 100.209 12.3457 101.63 12.3457C102.803 12.3457 103.482 11.2963 103.05 10C102.68 8.95063 100.456 9.07408 100.024 10.1852Z" fill="black"/>
<path fill-rule="evenodd" clip-rule="evenodd" d="M85.5719 16.2963C85.5719 16.8519 86.0042 17.2839 86.4983 17.2839C87.2394 17.2839 87.4247 18.3333 87.4247 22.7778C87.4247 27.0988 87.2394 28.3333 86.4983 28.642C84.4602 29.3827 85.7572 30.2469 88.9687 30.2469C92.3656 30.2469 93.4773 29.4444 91.1304 28.7037C90.0804 28.3951 89.8952 27.7778 89.8952 24.321C89.8952 19.7531 91.1304 17.9012 94.2184 17.9012C95.6389 17.9012 96.0712 17.6543 96.0712 16.6667C96.0712 14.8765 93.292 15.0617 91.4392 16.9136C89.9569 18.3951 89.9569 18.3951 89.7716 17.037C89.5246 15.4321 85.5719 14.6914 85.5719 16.2963Z" fill="black"/>
<path fill-rule="evenodd" clip-rule="evenodd" d="M98.5416 16.2963C98.5416 16.8518 98.9739 17.2839 99.468 17.2839C100.209 17.2839 100.394 18.3333 100.394 22.7778C100.394 27.0988 100.209 28.3333 99.468 28.642C97.4917 29.3827 98.6651 30.2469 101.63 30.2469C104.656 30.2469 105.582 29.5679 103.791 28.5802C103.112 28.2099 102.865 26.5432 102.741 21.9136L102.556 15.7407L100.58 15.5555C99.0357 15.4321 98.5416 15.6173 98.5416 16.2963Z" fill="black"/>
<path fill-rule="evenodd" clip-rule="evenodd" d="M125.593 16.6667C123.616 18.2099 123.246 21.1728 124.852 22.9012C125.716 23.8889 125.716 24.1358 124.852 25.4321C124.234 26.358 124.111 27.1605 124.481 27.716C124.852 28.3333 124.605 29.1358 123.863 30.0617C122.319 32.037 122.999 33.8889 125.655 35C129.669 36.6667 135.166 34.9383 135.969 31.7284C136.586 29.2593 134.857 27.9012 130.287 27.4691C126.951 27.0988 126.334 26.8518 126.334 25.8642C126.334 24.8765 126.828 24.6914 128.99 24.6914C132.448 24.6914 134.363 23.0247 134.363 20.0617C134.363 18.5802 134.672 17.9012 135.289 17.9012C135.783 17.9012 136.216 17.4691 136.216 16.9753C136.216 16.4198 135.66 16.0494 134.857 16.0494C134.054 16.0494 132.078 15.8642 130.348 15.679C127.754 15.3704 126.952 15.5556 125.593 16.6667ZM131.769 18.0247C132.201 18.4568 132.51 19.5679 132.51 20.4938C132.51 22.7778 130.163 24.0123 127.878 22.963C125.902 22.037 125.346 20.679 126.21 18.7654C126.766 17.6543 127.384 17.2839 128.99 17.2839C130.101 17.2839 131.337 17.5926 131.769 18.0247ZM133.004 30C133.93 30.2469 133.992 32.2222 133.004 33.2099C132.572 33.642 130.966 33.9506 129.422 33.9506C127.878 33.9506 126.272 33.642 125.84 33.2099C124.79 32.1605 124.913 30.4321 126.149 29.7531C127.075 29.1975 130.966 29.321 133.004 30Z" fill="black"/>
<path fill-rule="evenodd" clip-rule="evenodd" d="M141.836 16.2963C139.674 17.4691 138.748 19.6296 138.686 23.3333C138.686 26.1728 138.933 26.9136 140.477 28.4568C141.959 29.8765 142.824 30.2469 145.109 30.2469C147.888 30.2469 151.038 29.2593 151.038 28.3333C151.038 27.2839 149.865 27.2222 148.074 28.1481C144.862 29.6914 141.712 28.1481 140.848 24.5062L140.415 22.8395H145.727H151.038V20.9259C151.038 16.7901 145.789 14.1358 141.836 16.2963ZM148.197 18.642C149.988 21.1728 149.494 21.6049 145.171 21.6049C141.836 21.6049 141.156 21.4197 141.156 20.5556C141.156 17.4691 146.406 16.0494 148.197 18.642Z" fill="black"/>
<path d="M108.732 46.2963C132.097 46.2963 151.038 46.0199 151.038 45.679C151.038 45.3381 132.097 45.0617 108.732 45.0617C85.3672 45.0617 66.4261 45.3381 66.4261 45.679C66.4261 46.0199 85.3672 46.2963 108.732 46.2963Z" fill="black"/>
</svg>
