<svg width="48" height="47" viewBox="0 0 48 47" fill="none" xmlns="http://www.w3.org/2000/svg">
<path fill-rule="evenodd" clip-rule="evenodd" d="M0.460938 23.1481V46.2963H23.93H47.399V23.1481V0H23.93H0.460938V23.1481ZM44.9285 21.9136C44.9285 32.963 44.8668 41.9753 44.7433 41.9753C44.6815 41.9753 35.6027 32.963 24.5476 21.9136L4.47537 1.85185H24.7328H44.9285V21.9136ZM9.66326 10.3086L15.2835 16.2963V30V43.7654L9.35446 43.9506C6.08115 44.0741 3.30192 44.0123 3.1784 43.8889C2.62256 43.3333 2.93136 4.32099 3.48721 4.32099C3.79601 4.32099 6.57523 7.03704 9.66326 10.3086ZM30.8471 31.2963C37.579 38.0247 43.0757 43.642 43.0757 43.8272C43.0757 44.0123 37.4555 44.0741 30.6001 44.0123L18.0627 43.8889L17.8774 31.4815C17.8157 24.6914 17.9392 19.1358 18.1862 19.1358C18.4333 19.1358 24.177 24.6296 30.8471 31.2963Z" fill="black"/>
</svg>
