<svg width="16" height="14" viewBox="0 0 16 14" fill="none" xmlns="http://www.w3.org/2000/svg">
<g clip-path="url(#clip0_4_99)">
<path d="M0.399893 7.92999L13.1999 7.92999L9.33669 12.5156C9.26735 12.5958 9.2327 12.7003 9.24035 12.806C9.248 12.9118 9.29733 13.0102 9.37749 13.0796L9.98309 13.6028C10.0632 13.6708 10.1668 13.7046 10.2716 13.6968C10.3764 13.689 10.4739 13.6403 10.5431 13.5612L15.9023 7.37959C15.9657 7.30616 16.0002 7.21222 15.9994 7.11524C15.9987 7.01826 15.9628 6.92485 15.8983 6.85239L10.6983 1.03319C10.6279 0.955363 10.5298 0.908309 10.425 0.902174C10.3203 0.896039 10.2173 0.931312 10.1383 1.00039L9.53989 1.53239C9.50065 1.56732 9.46867 1.60964 9.44578 1.65693C9.42289 1.70421 9.40955 1.75555 9.4065 1.808C9.40345 1.86045 9.41077 1.91298 9.42803 1.9626C9.44529 2.01222 9.47216 2.05796 9.50709 2.09719L13.1775 6.32999L0.399893 6.32999C0.293807 6.32999 0.192065 6.37213 0.117051 6.44715C0.0420357 6.52216 -0.000106193 6.6239 -0.000106202 6.72999L-0.000106272 7.52999C-0.000106282 7.63608 0.0420356 7.73782 0.117051 7.81283C0.192065 7.88785 0.293807 7.92999 0.399893 7.92999Z" fill="white"/>
</g>
<defs>
<clipPath id="clip0_4_99">
<rect width="16" height="12.8" fill="white" transform="translate(16 13.7) rotate(-180)"/>
</clipPath>
</defs>
</svg>
